<?xml version="1.0" encoding="UTF-8"?>
<!DOCTYPE svg PUBLIC "-//W3C//DTD SVG 1.1//EN" "http://www.w3.org/Graphics/SVG/1.1/DTD/svg11.dtd">
<!-- Creator: CorelDRAW -->
<svg xmlns="http://www.w3.org/2000/svg" xml:space="preserve" width="6.82666in" height="6.82666in" style="shape-rendering:geometricPrecision; text-rendering:geometricPrecision; image-rendering:optimizeQuality; fill-rule:evenodd; clip-rule:evenodd"
viewBox="0 0 6.82666 6.82666"
 xmlns:xlink="http://www.w3.org/1999/xlink">
 <defs>
  <style type="text/css">
   <![CDATA[
    .fil3 {fill:none}
    .fil1 {fill:#EBE5DF}
    .fil2 {fill:#FECA5F}
    .fil0 {fill:#333333;fill-rule:nonzero}
   ]]>
  </style>
 </defs>
 <g id="Layer_x0020_1">
  <metadata id="CorelCorpID_0Corel-Layer"/>
  <g id="_626427656">
   <path id="_626427896" class="fil0" d="M3.85048 2.11435c0.329598,1.04374 1.04861,1.16312 1.5163,1.24077 0.0607441,0.0100866 0.117677,0.0195433 0.161929,0.0283898 0.281307,0.0562598 0.412941,0.22724 0.439677,0.446602 0.0157126,0.128949 -0.00740945,0.273803 -0.0589213,0.419665 -0.0499843,0.141539 -0.127327,0.28524 -0.221909,0.416465 -0.258421,0.358524 -0.650106,0.624126 -0.979244,0.512457 -0.116008,-0.0393583 -0.223059,-0.12774 -0.336764,-0.221622 -0.253039,-0.208913 -0.544354,-0.449425 -0.980961,-0.0445433 -0.362319,0.335992 -0.827705,0.427295 -1.26012,0.369118 -0.257902,-0.0346969 -0.504429,-0.122898 -0.710051,-0.244071 -0.208654,-0.122961 -0.376488,-0.280858 -0.4735,-0.452783 -0.0991811,-0.175764 -0.125563,-0.365606 -0.0497244,-0.549437 0.223665,-0.542146 0.653528,-0.565843 0.949142,-0.582142 0.0858504,-0.00473228 0.158488,-0.00874016 0.198201,-0.0253622 0.0225827,-0.00945276 0.0247402,-0.0405433 -0.00850787,-0.119984 -0.264862,-0.632795 -0.137465,-1.11725 0.145906,-1.42054 0.11678,-0.124984 0.259961,-0.218614 0.413126,-0.278776 0.152894,-0.0600551 0.316205,-0.0868701 0.473496,-0.0783386 0.346059,0.0187795 0.66261,0.206268 0.781929,0.58413zm1.49068 1.39828c-0.506094,-0.0840236 -1.28415,-0.213209 -1.64318,-1.35015 -0.0965394,-0.305724 -0.354768,-0.457535 -0.637551,-0.472878 -0.134795,-0.00731102 -0.275256,0.0158661 -0.407244,0.0677087 -0.131717,0.0517362 -0.254563,0.131949 -0.354378,0.238776 -0.244417,0.261598 -0.351394,0.686421 -0.115276,1.25054 0.0797165,0.190465 0.0388543,0.279937 -0.0777441,0.32874 -0.0644252,0.0269646 -0.149791,0.0316732 -0.250705,0.0372362 -0.254748,0.0140433 -0.625181,0.0344685 -0.810386,0.483386 -0.0555787,0.134724 -0.0345276,0.276898 0.0409685,0.410689 0.0829843,0.147063 0.230283,0.284331 0.415374,0.393406 0.18813,0.110866 0.414024,0.19161 0.650681,0.223449 0.389524,0.0524094 0.807315,-0.0285197 1.13012,-0.327866 0.539083,-0.499909 0.887937,-0.21189 1.19096,0.0382913 0.101886,0.084122 0.197807,0.163315 0.286764,0.193496 0.254264,0.0862677 0.576724,-0.146492 0.798614,-0.454331 0.0855866,-0.11874 0.155528,-0.24865 0.200665,-0.376465 0.0436102,-0.123484 0.0634724,-0.243768 0.0507953,-0.347791 -0.0183386,-0.150476 -0.111677,-0.268378 -0.312181,-0.308476 -0.0532323,-0.0106457 -0.103102,-0.0189291 -0.156299,-0.0277598z"/>
   <path id="_626427704" class="fil0" d="M3.23079 2.85468c0.213543,0 0.406878,0.086563 0.546823,0.226512 0.139949,0.139945 0.226512,0.333283 0.226512,0.546823 0,0.213543 -0.086563,0.406878 -0.226512,0.546823 -0.139945,0.139949 -0.33328,0.226512 -0.546823,0.226512 -0.213543,0 -0.406878,-0.086563 -0.546823,-0.226512 -0.139949,-0.139945 -0.226512,-0.33328 -0.226512,-0.546823 0,-0.213539 0.086563,-0.406878 0.226512,-0.546823 0.139945,-0.139949 0.33328,-0.226512 0.546823,-0.226512zm0.433697 0.339638c-0.110984,-0.110988 -0.264323,-0.179638 -0.433697,-0.179638 -0.169374,0 -0.322713,0.0686496 -0.433697,0.179638 -0.110988,0.110984 -0.179638,0.264327 -0.179638,0.433697 0,0.169374 0.0686496,0.322713 0.179638,0.433697 0.110984,0.110988 0.264323,0.179638 0.433697,0.179638 0.169374,0 0.322713,-0.0686496 0.433697,-0.179638 0.110988,-0.110984 0.179638,-0.264323 0.179638,-0.433697 0,-0.16937 -0.0686496,-0.322713 -0.179638,-0.433697z"/>
   <path id="_626427776" class="fil0" d="M3.22893 3.17884c-0.0198465,0.000677165 -0.0375079,0.0122756 -0.0461811,0.0301063 -0.0173465,0.0361772 0.00979528,0.0778583 0.0498898,0.0764921l0.00183071 -5.51181e-005 0.00185039 -3.54331e-005 0.00190551 -2.3622e-005 0.0018622 -7.87402e-006 0.00187008 1.5748e-005 0.00188189 2.75591e-005 0.00187795 4.72441e-005 0.00193701 6.29921e-005 0.00189764 7.87402e-005 0.00194488 9.84252e-005 0.00190551 0.000110236 0.00191732 0.000133858 0.00196457 0.000149606 0.00192126 0.000161417 0.00197244 0.000185039 0.00193701 0.00019685 0.00198425 0.000224409 0.00198819 0.000232283 0.00194882 0.000248031 0.00199606 0.000271654 0.00195276 0.000279528 0.00201181 0.000307087 0.00201181 0.000318898 0.00201181 0.00034252 0.00201969 0.000354331 0.00201181 0.000374016 0.00202362 0.000385827 0.00199606 0.000401575 0.00207087 0.000433071 0.00202362 0.000433071 0.00200394 0.000452756 0.00208268 0.000484252 0.00203937 0.000488189 0.00203937 0.000507874 0.00205512 0.000523622 0.00204724 0.000543307 0.00209055 0.000566929 0.00205118 0.000574803 0.00209055 0.000602362 0.00205906 0.000602362 0.00204724 0.000622047 0.00209449 0.000653543 0.00207874 0.00065748 0.00138583 0.000448819c0.0256969,0.00835827 0.0504016,-0.00371654 0.0623307,-0.0238268 -0.00376378,0.00957874 -0.0047874,0.0205866 -0.00195276,0.0322244 0.00338583,0.013374 0.0113268,0.0244685 0.0229055,0.0319803l0.000444882 0.000291339 0.00203543 0.00133071 0.00200787 0.00133465 0.00201969 0.00135827 0.00201969 0.00137795 0.00201181 0.00138583 0.00199213 0.0013937 0.00198425 0.00140551 0.00201575 0.00144882 0.00200394 0.00145276 0.0019252 0.00141732 0.00198031 0.00148031 0.002 0.00150787 0.00196063 0.00149606 0.00194094 0.00150394 0.00193701 0.00151575 0.00194094 0.00153937 0.00194882 0.00156693 0.00192126 0.00156299 0.00191732 0.00157874 0.00192913 0.00160236 0.00190157 0.00160236 0.00187795 0.00160236 0.00188583 0.00162992 0.00188583 0.00164961 0.0018937 0.00167717 0.00186614 0.00166929 0.00183858 0.00166929 0.00187402 0.00171654 0.00182677 0.00169291 0.00183071 0.00172441 0.00183071 0.00174016 0.00179921 0.00173228 0.00180709 0.00176378 0.00180315 0.00177559 0.00179134 0.00179134 0.00176772 0.00178346 0.00177559 0.00181496 0.0014685 0.00151575c0.0193701,0.0200039 0.0478386,0.0203425 0.0678898,0.00711024 -0.0185118,0.016122 -0.0249488,0.0443071 -0.0109173,0.0676929l0.000251969 0.00042126 0.00129921 0.00222835 0.00128346 0.00223228 0.00125984 0.00222835 0.00124803 0.00224016 0.00122047 0.00222441 0.00122441 0.00227559 0.00121654 0.0022874 0.00116929 0.00223622 0.00117323 0.0022874 0.00115354 0.00229134 0.0011378 0.00229134 0.00113386 0.00232283 0.00109449 0.00228346 0.00109055 0.00232677 0.00109055 0.0023622 0.00106693 0.00234252 0.00103543 0.0023189 0.0010315 0.0023622 0.00101575 0.00237008 0.000984252 0.00233858 0.000972441 0.00237008 0.000968504 0.00239764 0.000952756 0.00240945 0.000929134 0.0023937 0.000901575 0.00238583 0.000889764 0.00240551 0.000877953 0.00242126 0.000862205 0.00243307 0.000838583 0.00242913 0.000834646 0.00247244 0.000811024 0.00244488 0.000771654 0.00240551 0.000775591 0.00247244 0.000759843 0.00249606 0.00073622 0.00246457 0.000759843 0.00263386c0.00638189,0.0214409 0.0245197,0.0360157 0.0467008,0.0381535 0.00256299,0.000188976 0.00508268,0.00019685 0.00755118,4.72441e-005 -0.00822441,0.00187402 -0.016252,0.00581496 -0.0234016,0.0121457 -0.0116142,0.0102835 -0.018126,0.0250394 -0.0179488,0.0405472l3.93701e-006 0 0 0.00246063 -2.3622e-005 0.00270079 -4.72441e-005 0.00272047 -6.69291e-005 0.00272047 -8.66142e-005 0.00273228 -0.000114173 0.00270472 -0.000133858 0.00274409 -0.00015748 0.00275984 -0.000181102 0.00273228 -0.000204724 0.00276772 -0.000224409 0.00277953 -0.000248031 0.00275591 -0.000271654 0.00275984 -0.000295276 0.00277559 -0.000318898 0.00277559 -0.000346457 0.00278346 -0.000370079 0.00283071 -0.000389764 0.00279921 -0.000413386 0.00277953 -0.000440945 0.00282283 -0.000464567 0.00282283 -0.000484252 0.00279921 -0.000519685 0.00284252 -0.00053937 0.00285433 -0.000562992 0.00282283 -0.000590551 0.00285433c-0.00871654,0.0416457 0.032311,0.0762087 0.0719173,0.0605748 0.0166496,-0.00688189 0.0287283,-0.0207756 0.0324449,-0.0385276l0.00076378 -0.00368898 0.00073622 -0.0037126 0.00069685 -0.00367323 0.000669291 -0.00366929 0.000641732 -0.00370472 0.000606299 -0.00367323 0.000574803 -0.00366535 0.000547244 -0.00369291 0.000507874 -0.00366535 0.000480315 -0.00362598 0.000448819 -0.00365748 0.00042126 -0.00365748 0.000389764 -0.00364961 0.000358268 -0.00364961 0.000326772 -0.00364567 0.000295276 -0.0036063 0.000267717 -0.00361024 0.00023622 -0.0036378 0.000204724 -0.00359449 0.000181102 -0.00359449 0.000145669 -0.00362598 0.00011811 -0.00358268 9.05512e-005 -0.00358661 5.51181e-005 -0.00357874 3.14961e-005 -0.0035748 0 -0.00357087 -3.93701e-006 -0.000629921c-0.000370079,-0.0326614 -0.0282874,-0.0542087 -0.0566378,-0.0526417 0.0290433,-0.00652756 0.0482323,-0.0361732 0.0394291,-0.0669843l-0.000759843 -0.00263386 -0.000964567 -0.00325197 -0.000980315 -0.00319685 -0.000996063 -0.00319685 -0.00104724 -0.00325591 -0.00105512 -0.00319291 -0.00106299 -0.00314961 -0.00109843 -0.00316929 -0.00111417 -0.00314961 -0.0011378 -0.00314567 -0.00116535 -0.00314567 -0.00119291 -0.00314173 -0.00120472 -0.00311024 -0.00122047 -0.00308661 -0.00123622 -0.00306693 -0.00127165 -0.00308661 -0.00129921 -0.00309449 -0.00130709 -0.00303937 -0.00132283 -0.0030315 -0.00135827 -0.00305118 -0.00136614 -0.00301181 -0.00137402 -0.0029685 -0.00140551 -0.00298819 -0.00144094 -0.00300787 -0.00144094 -0.00295276 -0.00146063 -0.00295276 -0.00149213 -0.00294488 -0.00149606 -0.00291732 -0.00153937 -0.00295276 -0.0015315 -0.00287795 -0.00154724 -0.00287402 -0.00159055 -0.00290157 -0.00159449 -0.0028622 -0.00161417 -0.00285039 -0.00162205 -0.00282283 -0.0016378 -0.00281102 -0.000645669 -0.00109055c-0.0109961,-0.0183228 -0.0310394,-0.0279409 -0.0521969,-0.0256181 -0.00855118,0.00104331 -0.0162402,0.00399213 -0.0228031,0.00830709 0.00955118,-0.00831102 0.0163228,-0.020185 0.0177598,-0.0347559 0.00138976,-0.0158937 -0.00369291,-0.0308898 -0.0148346,-0.0423976l-0.0014685 -0.00151575 -0.00220866 -0.00226378 -0.00224016 -0.00226378 -0.00224016 -0.00223228 -0.00224409 -0.00221654 -0.00226378 -0.00220472 -0.0022874 -0.00220472 -0.0022874 -0.00217323 -0.00229528 -0.00215748 -0.00232283 -0.00215748 -0.00229921 -0.00211024 -0.00235039 -0.00213386 -0.00234646 -0.00209449 -0.00232677 -0.00206299 -0.00236614 -0.00206693 -0.00237402 -0.00205512 -0.00240551 -0.00205118 -0.00239764 -0.00201969 -0.00238583 -0.00198819 -0.00241339 -0.00198819 -0.00243307 -0.00197244 -0.00241339 -0.00193701 -0.00244488 -0.00194094 -0.00246457 -0.00193307 -0.0024685 -0.00190551 -0.00247244 -0.00188976 -0.00244882 -0.00184646 -0.00247638 -0.00185039 -0.00254724 -0.00187402 -0.00249213 -0.00180709 -0.00248819 -0.0017874 -0.00252756 -0.00179134 -0.00254331 -0.00177953 -0.0025315 -0.00174803 -0.00253937 -0.00173228 -0.00254724 -0.0017126 -0.0025748 -0.0017126 -0.00256299 -0.00167717 -0.000948819 -0.000614173c-0.0278268,-0.0176732 -0.0605827,-0.00615354 -0.0749016,0.0178858 0.00458268,-0.0115709 0.00520079,-0.0249724 8.66142e-005,-0.038374 -0.0057874,-0.0151654 -0.0180276,-0.0266772 -0.0334449,-0.0316929l-0.00138583 -0.000448819 -0.00279528 -0.000893701 -0.00277165 -0.000858268 -0.00282677 -0.000858268 -0.00281496 -0.000830709 -0.00278346 -0.000799213 -0.00282283 -0.000787402 -0.00278346 -0.000755906 -0.00282677 -0.000748031 -0.0028189 -0.000720472 -0.00282677 -0.000704724 -0.00283465 -0.000677165 -0.00278346 -0.000649606 -0.0028622 -0.000641732 -0.00283465 -0.000614173 -0.00279528 -0.000582677 -0.0028622 -0.000574803 -0.00282677 -0.000543307 -0.00283858 -0.000523622 -0.00283071 -0.000496063 -0.00283071 -0.000476378 -0.00283071 -0.000452756 -0.00282283 -0.000433071 -0.00287402 -0.000413386 -0.00283071 -0.00038189 -0.00287008 -0.000366142 -0.00283071 -0.000334646 -0.00282677 -0.000311024 -0.00286614 -0.000291339 -0.00282283 -0.00026378 -0.00286614 -0.000248031 -0.00282283 -0.000212598 -0.0028622 -0.00019685 -0.00285827 -0.000165354 -0.0028189 -0.000145669 -0.00285827 -0.00011811 -0.00281102 -9.44882e-005 -0.00285433 -7.08661e-005 -0.00285039 -4.33071e-005 -0.00284646 -1.5748e-005 -0.00284646 7.87402e-006 -0.00280315 3.14961e-005 -0.00283465 5.90551e-005 -0.00285433 8.66142e-005z"/>
  </g>
  <path class="fil1" d="M2.68396 3.08119c0.139945,-0.139949 0.33328,-0.226512 0.546823,-0.226512 0.213543,0 0.406878,0.086563 0.546823,0.226512 0.139949,0.139945 0.226512,0.333283 0.226512,0.546823 0,0.213543 -0.086563,0.406878 -0.226512,0.546823 -0.139945,0.139949 -0.33328,0.226512 -0.546823,0.226512 -0.213543,0 -0.406878,-0.086563 -0.546823,-0.226512 -0.139949,-0.139945 -0.226512,-0.33328 -0.226512,-0.546823 0,-0.213539 0.086563,-0.406878 0.226512,-0.546823zm2.6572 0.431433c-0.506094,-0.0840236 -1.28415,-0.213209 -1.64318,-1.35015 -0.0965394,-0.305724 -0.354768,-0.457535 -0.637551,-0.472878 -0.134795,-0.00731102 -0.275256,0.0158661 -0.407244,0.0677087 -0.131717,0.0517362 -0.254563,0.131949 -0.354378,0.238776 -0.244417,0.261598 -0.351394,0.686421 -0.115276,1.25054 0.0797165,0.190465 0.0388543,0.279937 -0.0777441,0.32874 -0.0644252,0.0269646 -0.149791,0.0316732 -0.250705,0.0372362 -0.254748,0.0140433 -0.625181,0.0344685 -0.810386,0.483386 -0.0555787,0.134724 -0.0345276,0.276898 0.0409685,0.410689 0.0829843,0.147063 0.230283,0.284331 0.415374,0.393406 0.18813,0.110866 0.414024,0.19161 0.650681,0.223449 0.389524,0.0524094 0.807315,-0.0285197 1.13012,-0.327866 0.539083,-0.499909 0.887937,-0.21189 1.19096,0.0382913 0.101886,0.084122 0.197807,0.163315 0.286764,0.193496 0.254264,0.0862677 0.576724,-0.146492 0.798614,-0.454331 0.0855866,-0.11874 0.155528,-0.24865 0.200665,-0.376465 0.0436102,-0.123484 0.0634724,-0.243768 0.0507953,-0.347791 -0.0183386,-0.150476 -0.111677,-0.268378 -0.312181,-0.308476 -0.0532323,-0.0106457 -0.103102,-0.0189291 -0.156299,-0.0277598z"/>
  <path class="fil2" d="M3.23079 3.01468c-0.169374,0 -0.322713,0.0686496 -0.433697,0.179638 -0.110988,0.110984 -0.179638,0.264327 -0.179638,0.433697 0,0.169374 0.0686496,0.322713 0.179638,0.433697 0.110984,0.110988 0.264323,0.179638 0.433697,0.179638 0.169374,0 0.322713,-0.0686496 0.433697,-0.179638 0.110988,-0.110984 0.179638,-0.264323 0.179638,-0.433697 0,-0.16937 -0.0686496,-0.322713 -0.179638,-0.433697 -0.110984,-0.110988 -0.264323,-0.179638 -0.433697,-0.179638zm0.00185433 0.270756c-0.0400945,0.00136614 -0.0672362,-0.040315 -0.0498898,-0.0764921 0.00867323,-0.0178307 0.0263346,-0.0294291 0.0461811,-0.0301063l0.00285433 -8.66142e-005 0.00283465 -5.90551e-005 0.00280315 -3.14961e-005 0.00284646 -7.87402e-006 0.00284646 1.5748e-005 0.00285039 4.33071e-005 0.00285433 7.08661e-005 0.00281102 9.44882e-005 0.00285827 0.00011811 0.0028189 0.000145669 0.00285827 0.000165354 0.0028622 0.00019685 0.00282283 0.000212598 0.00286614 0.000248031 0.00282283 0.00026378 0.00286614 0.000291339 0.00282677 0.000311024 0.00283071 0.000334646 0.00287008 0.000366142 0.00283071 0.00038189 0.00287402 0.000413386 0.00282283 0.000433071 0.00283071 0.000452756 0.00283071 0.000476378 0.00283071 0.000496063 0.00283858 0.000523622 0.00282677 0.000543307 0.0028622 0.000574803 0.00279528 0.000582677 0.00283465 0.000614173 0.0028622 0.000641732 0.00278346 0.000649606 0.00283465 0.000677165 0.00282677 0.000704724 0.0028189 0.000720472 0.00282677 0.000748031 0.00278346 0.000755906 0.00282283 0.000787402 0.00278346 0.000799213 0.00281496 0.000830709 0.00282677 0.000858268 0.00277165 0.000858268 0.00279528 0.000893701 0.00138583 0.000448819c0.0154173,0.00501575 0.0276575,0.0165276 0.0334449,0.0316929 0.00511417,0.0134016 0.00449606,0.0268031 -8.66142e-005,0.038374 0.0143189,-0.0240394 0.0470748,-0.0355591 0.0749016,-0.0178858l0.000948819 0.000614173 0.00256299 0.00167717 0.0025748 0.0017126 0.00254724 0.0017126 0.00253937 0.00173228 0.0025315 0.00174803 0.00254331 0.00177953 0.00252756 0.00179134 0.00248819 0.0017874 0.00249213 0.00180709 0.00254724 0.00187402 0.00247638 0.00185039 0.00244882 0.00184646 0.00247244 0.00188976 0.0024685 0.00190551 0.00246457 0.00193307 0.00244488 0.00194094 0.00241339 0.00193701 0.00243307 0.00197244 0.00241339 0.00198819 0.00238583 0.00198819 0.00239764 0.00201969 0.00240551 0.00205118 0.00237402 0.00205512 0.00236614 0.00206693 0.00232677 0.00206299 0.00234646 0.00209449 0.00235039 0.00213386 0.00229921 0.00211024 0.00232283 0.00215748 0.00229528 0.00215748 0.0022874 0.00217323 0.0022874 0.00220472 0.00226378 0.00220472 0.00224409 0.00221654 0.00224016 0.00223228 0.00224016 0.00226378 0.00220866 0.00226378 0.0014685 0.00151575c0.0111417,0.0115079 0.0162244,0.0265039 0.0148346,0.0423976 -0.00143701,0.0145709 -0.00820866,0.0264449 -0.0177598,0.0347559 0.00656299,-0.00431496 0.014252,-0.00726378 0.0228031,-0.00830709 0.0211575,-0.00232283 0.0412008,0.00729528 0.0521969,0.0256181l0.000645669 0.00109055 0.0016378 0.00281102 0.00162205 0.00282283 0.00161417 0.00285039 0.00159449 0.0028622 0.00159055 0.00290157 0.00154724 0.00287402 0.0015315 0.00287795 0.00153937 0.00295276 0.00149606 0.00291732 0.00149213 0.00294488 0.00146063 0.00295276 0.00144094 0.00295276 0.00144094 0.00300787 0.00140551 0.00298819 0.00137402 0.0029685 0.00136614 0.00301181 0.00135827 0.00305118 0.00132283 0.0030315 0.00130709 0.00303937 0.00129921 0.00309449 0.00127165 0.00308661 0.00123622 0.00306693 0.00122047 0.00308661 0.00120472 0.00311024 0.00119291 0.00314173 0.00116535 0.00314567 0.0011378 0.00314567 0.00111417 0.00314961 0.00109843 0.00316929 0.00106299 0.00314961 0.00105512 0.00319291 0.00104724 0.00325591 0.000996063 0.00319685 0.000980315 0.00319685 0.000964567 0.00325197 0.000759843 0.00263386c0.00880315,0.030811 -0.0103858,0.0604567 -0.0394291,0.0669843 0.0283504,-0.00156693 0.0562677,0.0199803 0.0566378,0.0526417l3.93701e-006 0.000629921 0 0.00357087 -3.14961e-005 0.0035748 -5.51181e-005 0.00357874 -9.05512e-005 0.00358661 -0.00011811 0.00358268 -0.000145669 0.00362598 -0.000181102 0.00359449 -0.000204724 0.00359449 -0.00023622 0.0036378 -0.000267717 0.00361024 -0.000295276 0.0036063 -0.000326772 0.00364567 -0.000358268 0.00364961 -0.000389764 0.00364961 -0.00042126 0.00365748 -0.000448819 0.00365748 -0.000480315 0.00362598 -0.000507874 0.00366535 -0.000547244 0.00369291 -0.000574803 0.00366535 -0.000606299 0.00367323 -0.000641732 0.00370472 -0.000669291 0.00366929 -0.00069685 0.00367323 -0.00073622 0.0037126 -0.00076378 0.00368898c-0.00371654,0.017752 -0.0157953,0.0316457 -0.0324449,0.0385276 -0.0396063,0.0156339 -0.0806339,-0.0189291 -0.0719173,-0.0605748l0.000590551 -0.00285433 0.000562992 -0.00282283 0.00053937 -0.00285433 0.000519685 -0.00284252 0.000484252 -0.00279921 0.000464567 -0.00282283 0.000440945 -0.00282283 0.000413386 -0.00277953 0.000389764 -0.00279921 0.000370079 -0.00283071 0.000346457 -0.00278346 0.000318898 -0.00277559 0.000295276 -0.00277559 0.000271654 -0.00275984 0.000248031 -0.00275591 0.000224409 -0.00277953 0.000204724 -0.00276772 0.000181102 -0.00273228 0.00015748 -0.00275984 0.000133858 -0.00274409 0.000114173 -0.00270472 8.66142e-005 -0.00273228 6.69291e-005 -0.00272047 4.72441e-005 -0.00272047 2.3622e-005 -0.00270079 -3.93701e-006 -0.00246063c-0.000177165,-0.0155079 0.00633465,-0.0302638 0.0179488,-0.0405472 0.00714961,-0.00633071 0.0151772,-0.0102717 0.0234016,-0.0121457 -0.0024685,0.000149606 -0.00498819,0.000141732 -0.00755118,-4.72441e-005 -0.0221811,-0.0021378 -0.0403189,-0.0167126 -0.0467008,-0.0381535l-0.000759843 -0.00263386 -0.00073622 -0.00246457 -0.000759843 -0.00249606 -0.000775591 -0.00247244 -0.000771654 -0.00240551 -0.000811024 -0.00244488 -0.000834646 -0.00247244 -0.000838583 -0.00242913 -0.000862205 -0.00243307 -0.000877953 -0.00242126 -0.000889764 -0.00240551 -0.000901575 -0.00238583 -0.000929134 -0.0023937 -0.000952756 -0.00240945 -0.000968504 -0.00239764 -0.000972441 -0.00237008 -0.000984252 -0.00233858 -0.00101575 -0.00237008 -0.0010315 -0.0023622 -0.00103543 -0.0023189 -0.00106693 -0.00234252 -0.00109055 -0.0023622 -0.00109055 -0.00232677 -0.00109449 -0.00228346 -0.00113386 -0.00232283 -0.0011378 -0.00229134 -0.00115354 -0.00229134 -0.00117323 -0.0022874 -0.00116929 -0.00223622 -0.00121654 -0.0022874 -0.00122441 -0.00227559 -0.00122047 -0.00222441 -0.00124803 -0.00224016 -0.00125984 -0.00222835 -0.00128346 -0.00223228 -0.00129921 -0.00222835 -0.000251969 -0.00042126c-0.0140315,-0.0233858 -0.00759449,-0.0515709 0.0109173,-0.0676929 -0.0200512,0.0132323 -0.0485197,0.0128937 -0.0678898,-0.00711024l-0.0014685 -0.00151575 -0.00177559 -0.00181496 -0.00176772 -0.00178346 -0.00179134 -0.00179134 -0.00180315 -0.00177559 -0.00180709 -0.00176378 -0.00179921 -0.00173228 -0.00183071 -0.00174016 -0.00183071 -0.00172441 -0.00182677 -0.00169291 -0.00187402 -0.00171654 -0.00183858 -0.00166929 -0.00186614 -0.00166929 -0.0018937 -0.00167717 -0.00188583 -0.00164961 -0.00188583 -0.00162992 -0.00187795 -0.00160236 -0.00190157 -0.00160236 -0.00192913 -0.00160236 -0.00191732 -0.00157874 -0.00192126 -0.00156299 -0.00194882 -0.00156693 -0.00194094 -0.00153937 -0.00193701 -0.00151575 -0.00194094 -0.00150394 -0.00196063 -0.00149606 -0.002 -0.00150787 -0.00198031 -0.00148031 -0.0019252 -0.00141732 -0.00200394 -0.00145276 -0.00201575 -0.00144882 -0.00198425 -0.00140551 -0.00199213 -0.0013937 -0.00201181 -0.00138583 -0.00201969 -0.00137795 -0.00201969 -0.00135827 -0.00200787 -0.00133465 -0.00203543 -0.00133071 -0.000444882 -0.000291339c-0.0115787,-0.00751181 -0.0195197,-0.0186063 -0.0229055,-0.0319803 -0.00283465,-0.0116378 -0.00181102,-0.0226457 0.00195276,-0.0322244 -0.0119291,0.0201102 -0.0366339,0.032185 -0.0623307,0.0238268l-0.00138583 -0.000448819 -0.00207874 -0.00065748 -0.00209449 -0.000653543 -0.00204724 -0.000622047 -0.00205906 -0.000602362 -0.00209055 -0.000602362 -0.00205118 -0.000574803 -0.00209055 -0.000566929 -0.00204724 -0.000543307 -0.00205512 -0.000523622 -0.00203937 -0.000507874 -0.00203937 -0.000488189 -0.00208268 -0.000484252 -0.00200394 -0.000452756 -0.00202362 -0.000433071 -0.00207087 -0.000433071 -0.00199606 -0.000401575 -0.00202362 -0.000385827 -0.00201181 -0.000374016 -0.00201969 -0.000354331 -0.00201181 -0.00034252 -0.00201181 -0.000318898 -0.00201181 -0.000307087 -0.00195276 -0.000279528 -0.00199606 -0.000271654 -0.00194882 -0.000248031 -0.00198819 -0.000232283 -0.00198425 -0.000224409 -0.00193701 -0.00019685 -0.00197244 -0.000185039 -0.00192126 -0.000161417 -0.00196457 -0.000149606 -0.00191732 -0.000133858 -0.00190551 -0.000110236 -0.00194488 -9.84252e-005 -0.00189764 -7.87402e-005 -0.00193701 -6.29921e-005 -0.00187795 -4.72441e-005 -0.00188189 -2.75591e-005 -0.00187008 -1.5748e-005 -0.0018622 7.87402e-006 -0.00190551 2.3622e-005 -0.00185039 3.54331e-005 -0.00183071 5.51181e-005z"/>
 </g>
 <rect class="fil3" width="6.82666" height="6.82666"/>
</svg>
