<svg xmlns="http://www.w3.org/2000/svg" xml:space="preserve" width="2048" height="2048" style="shape-rendering:geometricPrecision;text-rendering:geometricPrecision;image-rendering:optimizeQuality;fill-rule:evenodd;clip-rule:evenodd"><defs><clipPath id="id0"><path d="M1024-.001c565.539 0 1024 458.462 1024 1024 0 565.539-458.462 1024-1024 1024-565.539 0-1024-458.462-1024-1024 0-565.54 458.462-1024 1024-1024z"/></clipPath><style>.fil4{fill:#00acc1}.fil1{fill:#43a047}</style></defs><g id="Layer_x0020_1"><path d="M1024-.001c565.539 0 1024 458.462 1024 1024 0 565.539-458.462 1024-1024 1024-565.539 0-1024-458.462-1024-1024 0-565.54 458.462-1024 1024-1024z" style="fill:#81c784"/><g style="clip-path:url(#id0)"><g id="_466482944"><path id="_3968167361" class="fil1" d="m1443.93 648.63 1135.88 1135.88v888.71l-.06 2.39-.18 2.36-.3 2.33-.41 2.29-.52 2.25-.64 2.21-.73 2.17-.84 2.12-.94 2.06-1.03 2.01-1.13 1.96-1.22 1.89-1.3 1.83-1.39 1.77-1.47 1.69-1.55 1.62-1.62 1.55-1.69 1.47-1.77 1.39-1.83 1.31-1.89 1.21-1.96 1.13-2.01 1.03-2.07.94-2.11.84-2.17.74-2.21.63-2.25.52-2.29.41-2.33.3-2.36.18-2.39.06h-746.53l-2.39-.06-2.37-.18-2.32-.3-2.3-.41-2.25-.52-2.21-.63-2.16-.74-2.12-.84-2.07-.94-2.01-1.03-1.95-1.13-1.9-1.21-1.83-1.31-1.76-1.39L621.097 1573.31l1.765 1.39 1.831 1.3 1.893 1.22 1.955 1.13 2.011 1.03 2.066.94 2.116.84 2.165.73 2.211.63 2.253.53 2.292.41 2.328.3 2.362.18 2.392.06h746.523l2.4-.06 2.36-.18 2.33-.3 2.29-.41 2.25-.53 2.21-.63 2.17-.73 2.11-.84 2.07-.94 2.01-1.03 1.96-1.13 1.89-1.22 1.83-1.3 1.76-1.39 1.7-1.47 1.62-1.55 1.55-1.62 1.47-1.7 1.39-1.76 1.3-1.83 1.22-1.9 1.13-1.95 1.03-2.01.94-2.07.84-2.11.73-2.17.63-2.21.53-2.25.41-2.29.3-2.33.18-2.36.06-2.4z"/><path id="_466494440" class="fil1" d="M650.737 463.999h608.562l184.63 184.631v888.703c0 25.668-20.999 46.667-46.665 46.667H650.737c-25.667 0-46.667-21-46.667-46.667V510.663c0-25.668 21-46.667 46.667-46.667z"/></g></g><path d="M1024-.001c565.539 0 1024 458.462 1024 1024 0 565.539-458.462 1024-1024 1024-565.539 0-1024-458.462-1024-1024 0-565.54 458.462-1024 1024-1024z" style="fill:none"/><path d="M650.737 463.999h608.562l184.63 184.631v888.703c0 25.668-20.999 46.667-46.665 46.667H650.737c-25.667 0-46.667-21-46.667-46.667V510.663c0-25.668 21-46.667 46.667-46.667z" style="fill:#b2ebf2"/><path class="fil4" d="M1443.93 648.63h-137.963c-25.668 0-46.667-21-46.667-46.667V464l184.63 184.631zM1238.94 864.08c14.328 0 25.944-11.975 25.944-26.747s-11.616-26.748-25.944-26.748H809.067c-14.328 0-25.944 11.976-25.944 26.748s11.616 26.747 25.944 26.747h429.873zM1238.94 1050.74c14.328 0 25.944-11.976 25.944-26.747 0-14.772-11.616-26.749-25.944-26.749H809.067c-14.328 0-25.944 11.977-25.944 26.749 0 14.77 11.616 26.747 25.944 26.747h429.873zM1238.94 1237.41c14.328 0 25.944-11.976 25.944-26.747 0-14.772-11.616-26.748-25.944-26.748H809.067c-14.328 0-25.944 11.976-25.944 26.748 0 14.77 11.616 26.747 25.944 26.747h429.873zM1238.94 1424.07c14.328 0 25.944-11.975 25.944-26.747 0-14.771-11.616-26.746-25.944-26.746H809.067c-14.328 0-25.944 11.975-25.944 26.746 0 14.772 11.616 26.747 25.944 26.747h429.873z"/></g></svg>